<svg width="50" height="50" viewBox="0 0 50 50" fill="none" xmlns="http://www.w3.org/2000/svg">
<g clip-path="url(#clip0_79_15)">
<path d="M5.62576 9.05884H1.70996C0.765574 9.05884 0 9.74965 0 10.6018V48.4571C0 49.3092 0.765574 50.0001 1.70996 50.0001H5.62576C6.57014 50.0001 7.33572 49.3092 7.33572 48.4571V10.6018C7.33572 9.74965 6.57014 9.05884 5.62576 9.05884Z" fill="white"/>
<path d="M14.1832 0H10.0434C9.09904 0 8.33347 0.690812 8.33347 1.54297V48.457C8.33347 49.3092 9.09904 50 10.0434 50H14.1832C15.1276 50 15.8932 49.3092 15.8932 48.457V1.54297C15.8932 0.690812 15.1276 0 14.1832 0Z" fill="white"/>
<path d="M22.3038 16.229H18.3769C17.4325 16.229 16.667 16.9198 16.667 17.772V48.4571C16.667 49.3092 17.4325 50 18.3769 50H22.3038C23.2482 50 24.0138 49.3092 24.0138 48.4571V17.772C24.0138 16.9198 23.2482 16.229 22.3038 16.229Z" fill="white"/>
<path d="M30.8613 7.08923H26.7104C25.766 7.08923 25.0004 7.78005 25.0004 8.63221V48.4571C25.0004 49.3092 25.766 50 26.7104 50H30.8613C31.8057 50 32.5713 49.3092 32.5713 48.4571V8.63221C32.5713 7.78005 31.8057 7.08923 30.8613 7.08923Z" fill="white"/>
<path d="M39.1554 21.2714H35.043C34.0986 21.2714 33.333 21.9622 33.333 22.8143V48.457C33.333 49.3091 34.0986 50 35.043 50H39.1554C40.0998 50 40.8654 49.3091 40.8654 48.457V22.8143C40.8654 21.9622 40.0998 21.2714 39.1554 21.2714Z" fill="white"/>
<path d="M48.2901 2.04675H43.3765C42.4321 2.04675 41.6665 2.73756 41.6665 3.58972V48.457C41.6665 49.3092 42.4321 50 43.3765 50H48.2901C49.2344 50 50 49.3092 50 48.457V3.58972C50 2.73756 49.2344 2.04675 48.2901 2.04675Z" fill="white"/>
<path d="M50 43.4902H0V50H50V43.4902Z" fill="white"/>
</g>
<defs>
<clipPath id="clip0_79_15">
<rect width="50" height="50" fill="white"/>
</clipPath>
</defs>
</svg>
